<svg width="24" height="24" viewBox="0 0 24 24" fill="none" xmlns="http://www.w3.org/2000/svg">
<path fill-rule="evenodd" clip-rule="evenodd" d="M2 4.92915C2 4.416 2.45381 4 3.01362 4H5.63463C6.09748 4 6.84157 4.16197 7.20272 4.83103C7.43569 5.26263 7.52223 5.75058 7.57354 6.13513C7.59987 6.33243 7.61692 6.49489 7.63249 6.64332C7.65342 6.8427 7.67168 7.01676 7.70621 7.21594C7.75663 7.5068 7.8154 7.63809 7.84902 7.68871C7.86471 7.69085 7.8896 7.69291 7.92589 7.69244L7.93419 7.69233L15.9624 7.70958C18.2198 7.71443 19.6846 9.89279 18.6751 11.7436L17.9378 13.0953C17.251 14.3545 15.8471 15.1498 14.3113 15.1498H8.08172C7.89576 15.1498 7.76719 15.1505 7.65132 15.1606C7.54111 15.1701 7.48323 15.1855 7.4528 15.1971C7.43082 15.2055 7.41554 15.2143 7.39489 15.2358C7.36995 15.2617 7.31673 15.3285 7.25985 15.4776C7.22237 15.5758 7.23055 15.6795 7.36842 15.8124C7.52424 15.9626 7.79408 16.079 8.08172 16.079H17.7111C18.2709 16.079 18.7247 16.495 18.7247 17.0081C18.7247 17.5213 18.2709 17.9373 17.7111 17.9373H8.08172C7.24975 17.9373 6.44543 17.6193 5.89941 17.093C5.33544 16.5494 5.0141 15.7345 5.3463 14.864C5.5976 14.2054 6.025 13.7474 6.61706 13.5039C6.29662 12.7736 6.02459 11.9715 5.91806 11.1982C5.81493 10.4494 5.85748 9.59172 6.28308 8.87143C6.26797 8.85427 6.25313 8.8368 6.23855 8.81902C5.89554 8.40059 5.77063 7.89143 5.70409 7.50757C5.66364 7.27422 5.63127 6.97849 5.60332 6.72315C5.58821 6.58514 5.5744 6.45893 5.5613 6.36074C5.53279 6.14708 5.50074 5.98328 5.46458 5.8583H3.01362C2.45381 5.8583 2 5.44231 2 4.92915ZM5.63925 5.85852C5.63924 5.85856 5.63839 5.85853 5.63675 5.85833ZM8.25083 9.55132L15.9576 9.56788C16.7101 9.5695 17.1984 10.2956 16.8619 10.9126L16.1246 12.2643C15.7812 12.8938 15.0792 13.2915 14.3113 13.2915H8.72194C8.34497 12.5249 8.02959 11.6932 7.92934 10.9654C7.82396 10.2003 7.97155 9.78299 8.25083 9.55132ZM7.82734 7.68442C7.82736 7.6844 7.82785 7.68454 7.8288 7.68488Z" fill="#4FCA45"/>
<path d="M10.3617 20.2599C10.3617 21.0297 9.73768 21.6537 8.96795 21.6537C8.19821 21.6537 7.57422 21.0297 7.57422 20.2599C7.57422 19.4902 8.19821 18.8662 8.96795 18.8662C9.73768 18.8662 10.3617 19.4902 10.3617 20.2599Z" fill="#4FCA45"/>
<path d="M17.7953 20.2599C17.7953 21.0297 17.1713 21.6537 16.4015 21.6537C15.6318 21.6537 15.0078 21.0297 15.0078 20.2599C15.0078 19.4902 15.6318 18.8662 16.4015 18.8662C17.1713 18.8662 17.7953 19.4902 17.7953 20.2599Z" fill="#4FCA45"/>
</svg>
